<svg id="visual" viewBox="0 0 900 600" width="900" height="600" xmlns="http://www.w3.org/2000/svg" xmlns:xlink="http://www.w3.org/1999/xlink" version="1.1"><rect x="0" y="0" width="900" height="600" fill="#002233"></rect><path d="M0 454L21.5 464.7C43 475.3 86 496.7 128.8 510.8C171.7 525 214.3 532 257.2 533C300 534 343 529 385.8 516.3C428.7 503.7 471.3 483.3 514.2 468.7C557 454 600 445 642.8 456.5C685.7 468 728.3 500 771.2 502.7C814 505.3 857 478.7 878.5 465.3L900 452L900 601L878.5 601C857 601 814 601 771.2 601C728.3 601 685.7 601 642.8 601C600 601 557 601 514.2 601C471.3 601 428.7 601 385.8 601C343 601 300 601 257.2 601C214.3 601 171.7 601 128.8 601C86 601 43 601 21.5 601L0 601Z" fill="#0066FF" stroke-linecap="round" stroke-linejoin="miter"></path></svg>